<?xml version="1.0" encoding="UTF-8" standalone="no" ?>
<!DOCTYPE svg PUBLIC "-//W3C//DTD SVG 1.1//EN" "http://www.w3.org/Graphics/SVG/1.1/DTD/svg11.dtd">
<svg xmlns="http://www.w3.org/2000/svg" xmlns:xlink="http://www.w3.org/1999/xlink" version="1.1" width="55" height="55" viewBox="50 50 300 300" xml:space="preserve">
<desc>Created with Fabric.js 3.6.2</desc>
<defs>
</defs>
<g transform="matrix(0.45 0 0 0.45 200 200)"  >
<path style="stroke: none; stroke-width: 1; stroke-dasharray: none; stroke-linecap: butt; stroke-dashoffset: 0; stroke-linejoin: miter; stroke-miterlimit: 4; fill: rgb(0,0,0); fill-rule: nonzero; opacity: 1;"  transform=" translate(-256, -256)" d="M 264 480 A 232 232 0 0 1 32 248 C 32 154 86 69.72 169.61 33.33 a 16 16 0 0 1 21.06 21.06 C 181.07 76.43 176 104.66 176 136 c 0 110.28 89.72 200 200 200 c 31.34 0 59.57 -5.07 81.61 -14.67 a 16 16 0 0 1 21.06 21.06 C 442.28 426 358 480 264 480 Z" stroke-linecap="round" />
</g>
</svg>
